<svg id="Layer_1" data-name="Layer 1" xmlns="http://www.w3.org/2000/svg" viewBox="0 0 251.44 61.74"><defs><style>.cls-1{fill:#00567d;}.cls-2{fill:none;}</style></defs><title>pnl-logo</title><path class="cls-1" d="M0,33.91,5.82.87H21.75C31.24.87,35.06,5.23,33.87,12,32.61,19.13,27.6,23.63,18.1,23.63H12.64L10.83,33.91Zm18.5-18c2.52,0,4.54-1,5-3.86.54-3.07-2.87-3.49-5.17-3.49H15.29L14,15.92Z"/><polygon class="cls-1" points="32.26 33.91 38.08 0.87 48.91 0.87 43.09 33.91 32.26 33.91"/><polygon class="cls-1" points="70.94 18.91 71.86 11.38 73.71 0.87 84.08 0.87 78.25 33.91 68.11 33.91 59.49 15.92 58.58 23.45 56.73 33.91 46.37 33.91 52.19 0.87 62.33 0.87 70.94 18.91"/><polygon class="cls-1" points="106.31 18.91 107.22 11.38 109.07 0.87 119.44 0.87 113.62 33.91 103.48 33.91 94.86 15.92 93.94 23.45 92.1 33.91 81.73 33.91 87.55 0.87 97.69 0.87 106.31 18.91"/><polygon class="cls-1" points="143.42 33.91 153.49 33.91 147.47 0.87 132.09 0.87 114.43 33.91 125.03 33.91 139.22 4.23 143.42 33.91"/><path class="cls-1" d="M178.38,13.49c.28-3.44-1.52-5.41-4.92-5.41-3.81,0-6.68,3.25-7.8,9.63-.82,4.64-.58,9,4.93,9,3.49,0,5.57-2.43,6.54-5.6h10.42a18.31,18.31,0,0,1-18.2,13.67c-10.92,0-16.35-6.7-14.45-17.43S165.2,0,174.42,0c10.1,0,14.86,5,14.23,13.49Z"/><path class="cls-1" d="M224.59,17.21c-2,11.24-10.67,17.57-20.44,17.57-10.37,0-16.17-6.42-14.18-17.67A20.09,20.09,0,0,1,210.28,0c11.79,0,15.85,8.49,14.31,17.21m-23.82,0c-.74,4.22-.39,9.5,4.8,9.5,4.68,0,7.23-4,8.19-9.5.79-4.5-.2-9.27-5-9.13s-7.25,5-8,9.13"/><polygon class="cls-1" points="224.39 33.91 230.21 0.87 241.04 0.87 236.58 26.2 251.44 26.2 250.09 33.91 224.39 33.91"/><polygon class="cls-1" points="137.51 14.49 140.22 33.94 128.57 33.88 137.51 14.49"/><path class="cls-1" d="M12.4,56.58,14,61.31h2.4L10.52,45.05H8L1.91,61.31H4.18l1.7-4.73ZM6.56,54.63l2.61-7.16h0l2.4,7.16Z"/><path class="cls-1" d="M30.88,49.81c-.09-1.79-.65-5.19-6.34-5.19-3.94,0-5.59,2.49-5.59,5,0,2.83,2.4,3.58,3.47,3.83l3.33.77c2.67.63,3.46,1.18,3.46,2.88,0,2.33-2.67,2.74-4.26,2.74-2.08,0-4.48-.86-4.48-3.8H18.41a5,5,0,0,0,1.66,4.12c.72.66,1.9,1.56,4.91,1.56,2.79,0,6.37-1.06,6.37-4.91,0-2.58-1.59-3.85-3.69-4.35L23,51.41c-1-.23-1.93-.68-1.93-2.06,0-2.47,2.33-2.85,3.71-2.85,1.84,0,3.92.79,4,3.31Z"/><path class="cls-1" d="M46.38,49.81c-.09-1.79-.66-5.19-6.34-5.19-3.94,0-5.59,2.49-5.59,5,0,2.83,2.4,3.58,3.47,3.83l3.33.77c2.67.63,3.46,1.18,3.46,2.88,0,2.33-2.67,2.74-4.26,2.74-2.08,0-4.48-.86-4.48-3.8H33.9a5,5,0,0,0,1.65,4.12c.73.66,1.9,1.56,4.91,1.56,2.79,0,6.37-1.06,6.37-4.91,0-2.58-1.59-3.85-3.69-4.35L38.5,51.41c-1-.23-1.93-.68-1.93-2.06,0-2.47,2.33-2.85,3.71-2.85,1.83,0,3.92.79,4,3.31Z"/><path class="cls-1" d="M61.16,45.05V55.33c0,3.53-2.26,4.46-4.28,4.46s-4.12-1-4.12-4.51V45.05h-2.2V55.9c0,3,1.88,5.84,6.25,5.84s6.55-2.81,6.55-6.14V45.05Z"/><path class="cls-1" d="M70.08,54.33h5.32c2.62,0,2.9,1.56,2.9,2.9a20,20,0,0,0,.38,4.08h2.7v-.36c-.68-.38-.79-.73-.82-1.63l-.14-2.94c-.09-2.27-1-2.67-1.95-3.06a4,4,0,0,0,2.26-3.9C80.75,46,78.08,45,75.41,45H67.89V61.31h2.2Zm0-7.4h5.48c1.09,0,2.92.2,2.92,2.72s-1.7,2.81-3.31,2.81h-5.1Z"/><path class="cls-1" d="M93.82,56.58l1.61,4.73h2.4L91.94,45.05H89.44L83.33,61.31h2.26l1.7-4.73ZM88,54.63l2.61-7.16h0L93,54.63Z"/><polygon class="cls-1" points="111.38 58.19 111.33 58.19 103.2 45.05 100.59 45.05 100.59 61.31 102.72 61.31 102.72 48.17 102.77 48.17 111.04 61.31 113.5 61.31 113.5 45.05 111.38 45.05 111.38 58.19"/><path class="cls-1" d="M131.55,49.94c-.32-2.72-2.49-5.32-6.68-5.32-4.73,0-7.59,3.46-7.59,8.47,0,6.25,3.63,8.65,7.32,8.65,1.22,0,6.2-.27,7.11-6.41h-2.13c-.75,3.78-3.22,4.46-4.64,4.46-4,0-5.39-2.94-5.39-6.77,0-4.28,2.38-6.45,5.32-6.45,1.56,0,3.94.52,4.55,3.37Z"/><polygon class="cls-1" points="146.73 59.36 136.92 59.36 136.92 53.93 145.82 53.93 145.82 51.98 136.92 51.98 136.92 47 146.57 47 146.57 45.05 134.72 45.05 134.72 61.31 146.73 61.31 146.73 59.36"/><rect class="cls-2" width="251.44" height="61.74"/></svg>